<svg width="590" height="488" viewBox="0 0 590 488" fill="none" xmlns="http://www.w3.org/2000/svg">
<rect width="590" height="488" rx="40" fill="url(#paint0_linear_955_4229)"/>
<rect x="98" y="200" width="394.279" height="88.3529" rx="20" fill="#0D0D12"/>
<path d="M119.273 236.844C117.454 236.844 116.241 235.701 116.241 233.969C116.241 232.282 117.454 231.28 119.625 231.166L122.244 231.034V230.173C122.244 228.977 121.514 228.318 120.187 228.318C119.088 228.318 118.315 228.784 118.069 229.601H116.601C116.777 228.072 118.253 227.026 120.205 227.026C122.446 227.026 123.729 228.169 123.729 230.155V236.685H122.305V235.253H122.156C121.699 236.272 120.662 236.844 119.273 236.844ZM119.704 235.534C121.145 235.534 122.244 234.576 122.244 233.302V232.177L119.792 232.291C118.456 232.352 117.752 232.924 117.752 233.917C117.752 234.919 118.5 235.534 119.704 235.534ZM127.299 229.716C127.299 228.063 128.706 226.956 130.806 226.956C132.793 226.956 134.137 227.949 134.313 229.54H132.872C132.696 228.705 131.896 228.195 130.78 228.195C129.567 228.195 128.785 228.758 128.785 229.628C128.785 230.357 129.277 230.77 130.472 231.034L131.817 231.342C133.672 231.763 134.515 232.572 134.515 233.952C134.515 235.71 133.047 236.852 130.789 236.852C128.627 236.852 127.194 235.842 127.027 234.207H128.547C128.767 235.086 129.611 235.595 130.841 235.595C132.142 235.595 132.968 235.007 132.968 234.093C132.968 233.337 132.503 232.932 131.29 232.66L129.875 232.335C128.152 231.939 127.299 231.069 127.299 229.716ZM137.831 229.716C137.831 228.063 139.237 226.956 141.338 226.956C143.324 226.956 144.669 227.949 144.844 229.54H143.403C143.227 228.705 142.427 228.195 141.311 228.195C140.098 228.195 139.316 228.758 139.316 229.628C139.316 230.357 139.808 230.77 141.004 231.034L142.348 231.342C144.203 231.763 145.047 232.572 145.047 233.952C145.047 235.71 143.579 236.852 141.32 236.852C139.158 236.852 137.725 235.842 137.558 234.207H139.079C139.299 235.086 140.142 235.595 141.373 235.595C142.674 235.595 143.5 235.007 143.5 234.093C143.5 233.337 143.034 232.932 141.821 232.66L140.406 232.335C138.683 231.939 137.831 231.069 137.831 229.716ZM154.409 234.216H155.859C155.569 235.789 154.057 236.852 152.054 236.852C149.434 236.852 147.914 235.279 147.914 232.563V231.131C147.914 228.617 149.522 226.965 151.948 226.965C154.427 226.965 155.886 228.608 155.886 231.368V232.3H149.39V232.686C149.39 234.435 150.428 235.56 152.054 235.56C153.258 235.56 154.145 235.051 154.409 234.216ZM151.939 228.248C150.348 228.248 149.39 229.338 149.39 231.166H154.409C154.409 229.346 153.477 228.248 151.939 228.248ZM160.739 224.583H162.216V227.167H166.083V228.441H162.233V233.82C162.233 234.857 162.963 235.42 164.308 235.42C164.844 235.42 165.802 235.393 166.057 235.367V236.633C165.819 236.677 164.659 236.72 164.202 236.72C161.838 236.72 160.739 235.824 160.739 233.838V228.441H158.199V227.167H160.739V224.583ZM224.587 236.844C222.767 236.844 221.554 235.701 221.554 233.969C221.554 232.282 222.767 231.28 224.938 231.166L227.557 231.034V230.173C227.557 228.977 226.828 228.318 225.501 228.318C224.402 228.318 223.629 228.784 223.382 229.601H221.915C222.091 228.072 223.567 227.026 225.518 227.026C227.759 227.026 229.043 228.169 229.043 230.155V236.685H227.619V235.253H227.469C227.012 236.272 225.975 236.844 224.587 236.844ZM225.017 235.534C226.459 235.534 227.557 234.576 227.557 233.302V232.177L225.105 232.291C223.769 232.352 223.066 232.924 223.066 233.917C223.066 234.919 223.813 235.534 225.017 235.534ZM240.681 229.654V236.677H239.337V230.094C239.337 228.933 238.915 228.327 238.115 228.327C237.28 228.327 236.77 229.056 236.77 230.243V236.677H235.434V230.085C235.434 228.933 235.012 228.327 234.204 228.327C233.36 228.327 232.833 229.056 232.833 230.243V236.677H231.488V227.14H232.824V228.485H232.982C233.22 227.527 233.905 226.965 234.802 226.965C235.698 226.965 236.331 227.518 236.533 228.459H236.691C236.937 227.545 237.702 226.965 238.66 226.965C239.987 226.965 240.681 227.887 240.681 229.654ZM246.616 236.852C244.094 236.852 242.485 235.209 242.485 232.634V231.192C242.485 228.617 244.094 226.973 246.616 226.973C249.139 226.973 250.747 228.617 250.747 231.192V232.634C250.747 235.209 249.139 236.852 246.616 236.852ZM246.616 228.292C244.981 228.292 243.962 229.452 243.962 231.324V232.493C243.962 234.374 244.981 235.525 246.616 235.525C248.251 235.525 249.27 234.374 249.27 232.493V231.324C249.27 229.452 248.251 228.292 246.616 228.292ZM261.05 227.14V236.677H259.617V234.998H259.494C258.984 236.184 257.895 236.852 256.444 236.852C254.37 236.852 253.245 235.613 253.245 233.328V227.14H254.739V232.95C254.739 234.673 255.442 235.481 256.928 235.481C258.501 235.481 259.556 234.383 259.556 232.757V227.14H261.05ZM263.777 236.677V227.14H265.209V228.819H265.332C265.842 227.633 266.932 226.965 268.382 226.965C270.456 226.965 271.581 228.204 271.581 230.489V236.677H270.087V230.867C270.087 229.144 269.384 228.336 267.899 228.336C266.325 228.336 265.271 229.434 265.271 231.06V236.677H263.777ZM276.584 224.583H278.061V227.167H281.928V228.441H278.078V233.82C278.078 234.857 278.808 235.42 280.153 235.42C280.689 235.42 281.647 235.393 281.902 235.367V236.633C281.664 236.677 280.504 236.72 280.047 236.72C277.683 236.72 276.584 235.824 276.584 233.838V228.441H274.044V227.167H276.584V224.583ZM123.667 264.881H122.472C120.336 264.881 119.66 264.204 119.66 262.033V260.064C119.66 258.711 118.869 257.92 116.812 258.131V256.54C118.869 256.751 119.66 255.969 119.66 254.606V252.637C119.66 250.467 120.336 249.79 122.472 249.79H123.667V250.994H122.709C121.391 250.994 121.136 251.302 121.136 252.831V255.177C121.136 256.408 120.213 257.225 118.429 257.269V257.41C120.213 257.445 121.136 258.262 121.136 259.493V261.84C121.136 263.369 121.391 263.677 122.709 263.677H123.667V264.881ZM129.857 256.654H128.249V250.994H129.857V256.654ZM133.294 256.654H131.676V250.994H133.294V256.654ZM140.336 263.844C138.516 263.844 137.303 262.701 137.303 260.969C137.303 259.282 138.516 258.28 140.687 258.166L143.306 258.034V257.173C143.306 255.977 142.577 255.318 141.25 255.318C140.151 255.318 139.378 255.784 139.132 256.601H137.664C137.84 255.072 139.316 254.026 141.267 254.026C143.509 254.026 144.792 255.169 144.792 257.155V263.685H143.368V262.253H143.218C142.761 263.272 141.724 263.844 140.336 263.844ZM140.766 262.534C142.208 262.534 143.306 261.576 143.306 260.302V259.177L140.854 259.291C139.518 259.352 138.815 259.924 138.815 260.917C138.815 261.919 139.562 262.534 140.766 262.534ZM148.362 256.716C148.362 255.063 149.768 253.956 151.869 253.956C153.855 253.956 155.2 254.949 155.376 256.54H153.934C153.759 255.705 152.959 255.195 151.843 255.195C150.63 255.195 149.848 255.758 149.848 256.628C149.848 257.357 150.34 257.77 151.535 258.034L152.88 258.342C154.734 258.763 155.578 259.572 155.578 260.952C155.578 262.71 154.11 263.852 151.851 263.852C149.689 263.852 148.257 262.842 148.09 261.207H149.61C149.83 262.086 150.674 262.595 151.904 262.595C153.205 262.595 154.031 262.007 154.031 261.093C154.031 260.337 153.565 259.932 152.352 259.66L150.937 259.335C149.215 258.939 148.362 258.069 148.362 256.716ZM158.894 256.716C158.894 255.063 160.3 253.956 162.4 253.956C164.387 253.956 165.731 254.949 165.907 256.54H164.466C164.29 255.705 163.49 255.195 162.374 255.195C161.161 255.195 160.379 255.758 160.379 256.628C160.379 257.357 160.871 257.77 162.066 258.034L163.411 258.342C165.266 258.763 166.109 259.572 166.109 260.952C166.109 262.71 164.642 263.852 162.383 263.852C160.221 263.852 158.788 262.842 158.621 261.207H160.142C160.361 262.086 161.205 262.595 162.436 262.595C163.736 262.595 164.562 262.007 164.562 261.093C164.562 260.337 164.097 259.932 162.884 259.66L161.469 259.335C159.746 258.939 158.894 258.069 158.894 256.716ZM175.472 261.216H176.922C176.632 262.789 175.12 263.852 173.116 263.852C170.497 263.852 168.977 262.279 168.977 259.563V258.131C168.977 255.617 170.585 253.965 173.011 253.965C175.489 253.965 176.948 255.608 176.948 258.368V259.3H170.453V259.686C170.453 261.435 171.49 262.56 173.116 262.56C174.32 262.56 175.208 262.051 175.472 261.216ZM173.002 255.248C171.411 255.248 170.453 256.338 170.453 258.166H175.472C175.472 256.346 174.54 255.248 173.002 255.248ZM181.802 251.583H183.279V254.167H187.146V255.441H183.296V260.82C183.296 261.857 184.026 262.42 185.37 262.42C185.906 262.42 186.864 262.393 187.119 262.367V263.633C186.882 263.677 185.722 263.72 185.265 263.72C182.901 263.72 181.802 262.824 181.802 260.838V255.441H179.262V254.167H181.802V251.583ZM193.045 256.654H191.437V250.994H193.045V256.654ZM196.482 256.654H194.865V250.994H196.482V256.654ZM204.491 256.979C203.621 256.979 202.9 256.241 202.9 255.353C202.9 254.466 203.621 253.727 204.491 253.727C205.361 253.727 206.081 254.466 206.081 255.353C206.081 256.241 205.361 256.979 204.491 256.979ZM204.491 263.729C203.621 263.729 202.9 263 202.9 262.103C202.9 261.216 203.621 260.486 204.491 260.486C205.361 260.486 206.081 261.216 206.081 262.103C206.081 263 205.361 263.729 204.491 263.729ZM266.879 266.594H265.464L266.554 260.882H268.531L266.879 266.594ZM287.828 256.654H286.219V250.994H287.828V256.654ZM291.264 256.654H289.647V250.994H291.264V256.654ZM298.306 263.844C296.487 263.844 295.274 262.701 295.274 260.969C295.274 259.282 296.487 258.28 298.658 258.166L301.277 258.034V257.173C301.277 255.977 300.547 255.318 299.22 255.318C298.122 255.318 297.348 255.784 297.102 256.601H295.634C295.81 255.072 297.287 254.026 299.238 254.026C301.479 254.026 302.762 255.169 302.762 257.155V263.685H301.338V262.253H301.189C300.732 263.272 299.695 263.844 298.306 263.844ZM298.737 262.534C300.178 262.534 301.277 261.576 301.277 260.302V259.177L298.825 259.291C297.489 259.352 296.786 259.924 296.786 260.917C296.786 261.919 297.533 262.534 298.737 262.534ZM314.401 256.654V263.677H313.056V257.094C313.056 255.933 312.634 255.327 311.835 255.327C311 255.327 310.49 256.056 310.49 257.243V263.677H309.154V257.085C309.154 255.933 308.732 255.327 307.923 255.327C307.08 255.327 306.552 256.056 306.552 257.243V263.677H305.208V254.14H306.544V255.485H306.702C306.939 254.527 307.625 253.965 308.521 253.965C309.418 253.965 310.05 254.518 310.253 255.459H310.411C310.657 254.545 311.421 253.965 312.38 253.965C313.707 253.965 314.401 254.887 314.401 256.654ZM320.336 263.852C317.813 263.852 316.205 262.209 316.205 259.634V258.192C316.205 255.617 317.813 253.973 320.336 253.973C322.858 253.973 324.467 255.617 324.467 258.192V259.634C324.467 262.209 322.858 263.852 320.336 263.852ZM320.336 255.292C318.701 255.292 317.681 256.452 317.681 258.324V259.493C317.681 261.374 318.701 262.525 320.336 262.525C321.97 262.525 322.99 261.374 322.99 259.493V258.324C322.99 256.452 321.97 255.292 320.336 255.292ZM334.769 254.14V263.677H333.337V261.998H333.214C332.704 263.184 331.614 263.852 330.164 263.852C328.09 263.852 326.965 262.613 326.965 260.328V254.14H328.459V259.95C328.459 261.673 329.162 262.481 330.647 262.481C332.221 262.481 333.275 261.383 333.275 259.757V254.14H334.769ZM337.496 263.677V254.14H338.929V255.819H339.052C339.561 254.633 340.651 253.965 342.102 253.965C344.176 253.965 345.301 255.204 345.301 257.489V263.677H343.807V257.867C343.807 256.144 343.103 255.336 341.618 255.336C340.045 255.336 338.99 256.434 338.99 258.06V263.677H337.496ZM350.304 251.583H351.78V254.167H355.648V255.441H351.798V260.82C351.798 261.857 352.527 262.42 353.872 262.42C354.408 262.42 355.366 262.393 355.621 262.367V263.633C355.384 263.677 354.224 263.72 353.767 263.72C351.402 263.72 350.304 262.824 350.304 260.838V255.441H347.764V254.167H350.304V251.583ZM361.547 256.654H359.939V250.994H361.547V256.654ZM364.984 256.654H363.366V250.994H364.984V256.654ZM372.993 256.979C372.122 256.979 371.402 256.241 371.402 255.353C371.402 254.466 372.122 253.727 372.993 253.727C373.863 253.727 374.583 254.466 374.583 255.353C374.583 256.241 373.863 256.979 372.993 256.979ZM372.993 263.729C372.122 263.729 371.402 263 371.402 262.103C371.402 261.216 372.122 260.486 372.993 260.486C373.863 260.486 374.583 261.216 374.583 262.103C374.583 263 373.863 263.729 372.993 263.729ZM453.816 264.881V263.677H454.774C456.092 263.677 456.347 263.369 456.347 261.84V259.493C456.347 258.262 457.27 257.445 459.054 257.41V257.269C457.27 257.225 456.347 256.408 456.347 255.177V252.831C456.347 251.302 456.092 250.994 454.774 250.994H453.816V249.79H455.011C457.147 249.79 457.823 250.467 457.823 252.637V254.606C457.823 255.969 458.615 256.751 460.671 256.54V258.131C458.615 257.92 457.823 258.711 457.823 260.064V262.033C457.823 264.204 457.147 264.881 455.011 264.881H453.816Z" fill="white"/>
<path d="M177.546 229.777H168.247V228.327H177.546V229.777ZM177.546 233.785H168.247V232.335H177.546V233.785ZM293.391 229.777H284.092V228.327H293.391V229.777ZM293.391 233.785H284.092V232.335H293.391V233.785ZM214.108 256.654H212.5V250.994H214.108V256.654ZM217.544 256.654H215.927V250.994H217.544V256.654ZM226.327 263.677H224.78V252.418H220.948V250.994H230.159V252.418H226.327V263.677ZM240.734 258.359C240.734 261.866 238.968 263.94 236.085 263.94C233.202 263.94 231.435 261.866 231.435 258.359V256.311C231.435 252.804 233.202 250.73 236.085 250.73C238.968 250.73 240.734 252.804 240.734 256.311V258.359ZM236.085 262.472C238.01 262.472 239.17 260.996 239.17 258.35V256.32C239.17 253.675 238.01 252.198 236.085 252.198C234.16 252.198 233 253.675 233 256.32V258.35C233 260.996 234.16 262.472 236.085 262.472ZM243.795 263.677H242.397V250.994H243.883L249.314 260.864H249.437V250.994H250.835V263.677H249.367L243.918 253.78H243.795V263.677ZM256.233 256.654H254.625V250.994H256.233V256.654ZM259.67 256.654H258.053V250.994H259.67V256.654ZM393.141 256.654H391.533V250.994H393.141V256.654ZM396.578 256.654H394.961V250.994H396.578V256.654ZM400.544 254.562C400.544 252.33 402.196 250.73 404.508 250.73C406.837 250.73 408.436 252.172 408.436 254.29C408.436 255.608 407.839 256.663 405.817 258.869L402.829 262.121V262.27H408.638V263.677H400.614V262.604L404.903 257.832C406.511 256.03 406.898 255.353 406.898 254.351C406.898 252.989 405.94 252.093 404.464 252.093C403.005 252.093 402.038 253.068 402.038 254.562V254.615H400.544V254.562ZM415.118 263.729C414.248 263.729 413.527 263 413.527 262.103C413.527 261.216 414.248 260.486 415.118 260.486C415.988 260.486 416.709 261.216 416.709 262.103C416.709 263 415.988 263.729 415.118 263.729ZM422.608 263.677L428.365 252.497V252.383H421.483V250.994H429.947V252.427L424.261 263.677H422.608ZM436.075 263.931C433.711 263.931 432.041 262.472 431.909 260.293H433.403C433.544 261.62 434.678 262.534 436.163 262.534C437.798 262.534 438.888 261.383 438.888 259.66C438.888 257.92 437.789 256.742 436.163 256.742C435.029 256.742 434.089 257.26 433.588 258.157H432.12L432.762 250.994H439.696V252.391H433.983L433.632 256.531H433.772C434.397 255.775 435.302 255.38 436.418 255.38C438.765 255.38 440.399 257.129 440.399 259.625C440.399 262.191 438.65 263.931 436.075 263.931ZM445.798 256.654H444.19V250.994H445.798V256.654ZM449.235 256.654H447.617V250.994H449.235V256.654Z" fill="#5DB0E2"/>
<path d="M184.201 236.677H182.654V225.418H178.822V223.994H188.033V225.418H184.201V236.677ZM198.609 231.359C198.609 234.866 196.842 236.94 193.959 236.94C191.076 236.94 189.31 234.866 189.31 231.359V229.311C189.31 225.804 191.076 223.73 193.959 223.73C196.842 223.73 198.609 225.804 198.609 229.311V231.359ZM193.959 235.472C195.884 235.472 197.044 233.996 197.044 231.35V229.32C197.044 226.675 195.884 225.198 193.959 225.198C192.034 225.198 190.874 226.675 190.874 229.32V231.35C190.874 233.996 192.034 235.472 193.959 235.472ZM201.669 236.677H200.272V223.994H201.757L207.189 233.864H207.312V223.994H208.709V236.677H207.242L201.792 226.78H201.669V236.677ZM295.23 227.562C295.23 225.33 296.882 223.73 299.194 223.73C301.523 223.73 303.123 225.172 303.123 227.29C303.123 228.608 302.525 229.663 300.503 231.869L297.515 235.121V235.27H303.325V236.677H295.3V235.604L299.589 230.832C301.198 229.03 301.584 228.353 301.584 227.351C301.584 225.989 300.626 225.093 299.15 225.093C297.691 225.093 296.724 226.068 296.724 227.562V227.615H295.23V227.562ZM309.804 236.729C308.934 236.729 308.213 236 308.213 235.103C308.213 234.216 308.934 233.486 309.804 233.486C310.674 233.486 311.395 234.216 311.395 235.103C311.395 236 310.674 236.729 309.804 236.729ZM317.295 236.677L323.051 225.497V225.383H316.17V223.994H324.634V225.427L318.947 236.677H317.295ZM330.762 236.931C328.397 236.931 326.727 235.472 326.596 233.293H328.09C328.23 234.62 329.364 235.534 330.849 235.534C332.484 235.534 333.574 234.383 333.574 232.66C333.574 230.92 332.475 229.742 330.849 229.742C329.716 229.742 328.775 230.26 328.274 231.157H326.807L327.448 223.994H334.383V225.391H328.67L328.318 229.531H328.459C329.083 228.775 329.988 228.38 331.104 228.38C333.451 228.38 335.086 230.129 335.086 232.625C335.086 235.191 333.337 236.931 330.762 236.931Z" fill="#FCEF8F"/>
<path d="M218.432 236.677L217.421 235.376C216.419 236.386 215.224 236.905 213.853 236.905C211.629 236.905 210.074 235.455 210.074 233.389C210.074 232.001 210.83 230.823 212.377 229.812L212.781 229.54C211.814 228.362 211.357 227.36 211.357 226.446C211.357 224.838 212.526 223.73 214.196 223.73C215.848 223.73 217 224.838 217 226.446C217 227.72 216.376 228.626 214.635 229.768L217.369 233.205C217.694 232.44 217.861 231.535 217.896 230.357V230.278H219.17V230.41C219.118 231.966 218.81 233.249 218.212 234.295L220.172 236.677H218.432ZM214.187 224.961C213.326 224.961 212.675 225.602 212.675 226.464C212.675 227.176 213.009 227.852 213.888 228.907C215.259 228.002 215.699 227.395 215.699 226.464C215.699 225.602 215.048 224.961 214.187 224.961ZM213.176 230.735C212.016 231.456 211.48 232.282 211.48 233.319C211.48 234.681 212.456 235.595 213.906 235.595C215.04 235.595 216.015 235.182 216.657 234.418L213.528 230.507L213.176 230.735Z" fill="#D56565"/>
<defs>
<linearGradient id="paint0_linear_955_4229" x1="639.57" y1="71" x2="418.893" y2="605.67" gradientUnits="userSpaceOnUse">
<stop stop-color="#FCB69F"/>
<stop offset="1" stop-color="#FFECD2"/>
</linearGradient>
</defs>
</svg>
