<svg width="590" height="488" viewBox="0 0 590 488" fill="none" xmlns="http://www.w3.org/2000/svg">
<rect width="590" height="488" rx="40" fill="url(#paint0_linear_955_4254)"/>
<rect x="93" y="145" width="403.353" height="198.353" rx="20" fill="#0D0D12"/>
<path d="M118.58 181.677H111.9V180.297H114.466V170.374H111.9V168.994H118.58V170.374H116.013V180.297H118.58V181.677ZM121.869 181.677V172.14H123.301V173.819H123.424C123.934 172.633 125.024 171.965 126.474 171.965C128.548 171.965 129.673 173.204 129.673 175.489V181.677H128.179V175.867C128.179 174.144 127.476 173.336 125.991 173.336C124.418 173.336 123.363 174.434 123.363 176.06V181.677H121.869ZM131.996 172.14H133.595L136.259 180.077H136.373L139.018 172.14H140.609L137.129 181.677H135.485L131.996 172.14ZM146.834 181.852C144.311 181.852 142.703 180.209 142.703 177.634V176.192C142.703 173.617 144.311 171.973 146.834 171.973C149.356 171.973 150.965 173.617 150.965 176.192V177.634C150.965 180.209 149.356 181.852 146.834 181.852ZM146.834 173.292C145.199 173.292 144.18 174.452 144.18 176.324V177.493C144.18 179.374 145.199 180.525 146.834 180.525C148.469 180.525 149.488 179.374 149.488 177.493V176.324C149.488 174.452 148.469 173.292 146.834 173.292ZM157.532 169.802C156.829 169.802 156.293 169.275 156.293 168.572C156.293 167.878 156.829 167.35 157.532 167.35C158.235 167.35 158.771 167.878 158.771 168.572C158.771 169.275 158.235 169.802 157.532 169.802ZM161.531 181.677H153.63V180.437H156.899V173.38H153.656V172.14H158.376V180.437H161.531V181.677ZM171.869 175.111H170.393C170.208 173.995 169.276 173.292 168.046 173.292C166.385 173.292 165.462 174.426 165.462 176.473V177.335C165.462 179.383 166.385 180.508 168.046 180.508C169.276 180.508 170.208 179.813 170.393 178.723H171.869C171.632 180.666 170.182 181.852 168.072 181.852C165.48 181.852 163.968 180.261 163.968 177.528V176.28C163.968 173.547 165.48 171.956 168.072 171.956C170.182 171.956 171.623 173.151 171.869 175.111ZM181.003 179.216H182.453C182.163 180.789 180.652 181.852 178.648 181.852C176.029 181.852 174.508 180.279 174.508 177.563V176.131C174.508 173.617 176.116 171.965 178.542 171.965C181.021 171.965 182.48 173.608 182.48 176.368V177.3H175.985V177.686C175.985 179.435 177.022 180.56 178.648 180.56C179.852 180.56 180.739 180.051 181.003 179.216ZM178.533 173.248C176.943 173.248 175.985 174.338 175.985 176.166H181.003C181.003 174.346 180.071 173.248 178.533 173.248ZM147.431 198.982C149.638 198.982 151.079 200.573 151.079 203.025V204.801C151.079 207.244 149.638 208.835 147.431 208.835C146.052 208.835 145.041 208.246 144.628 207.2H144.461V211.893H142.94V199.14H144.417V200.599H144.575C145.076 199.545 146.069 198.982 147.431 198.982ZM147.001 200.353C145.428 200.353 144.426 201.478 144.426 203.236V204.607C144.426 206.374 145.428 207.499 147.001 207.499C148.574 207.499 149.576 206.365 149.576 204.607V203.236C149.576 201.478 148.574 200.353 147.001 200.353ZM156.398 208.844C154.579 208.844 153.366 207.701 153.366 205.969C153.366 204.282 154.579 203.28 156.75 203.166L159.369 203.034V202.173C159.369 200.977 158.64 200.318 157.312 200.318C156.214 200.318 155.44 200.784 155.194 201.601H153.727C153.902 200.072 155.379 199.026 157.33 199.026C159.571 199.026 160.854 200.169 160.854 202.155V208.685H159.431V207.253H159.281C158.824 208.272 157.787 208.844 156.398 208.844ZM156.829 207.534C158.27 207.534 159.369 206.576 159.369 205.302V204.177L156.917 204.291C155.581 204.352 154.878 204.924 154.878 205.917C154.878 206.919 155.625 207.534 156.829 207.534ZM165.225 212.069C165.005 212.069 164.715 212.06 164.583 212.043V210.733C164.697 210.76 164.97 210.768 165.11 210.768C166.007 210.768 166.499 210.364 166.895 209.257L167.062 208.738L163.555 199.14H165.181L167.853 207.121H167.967L170.63 199.14H172.221L168.626 209.028C167.791 211.375 166.991 212.069 165.225 212.069ZM182.594 208.677H174.693V207.437H177.953V196.635H174.719V195.396H179.447V207.437H182.594V208.677ZM188.959 208.852C186.437 208.852 184.828 207.209 184.828 204.634V203.192C184.828 200.617 186.437 198.973 188.959 198.973C191.482 198.973 193.09 200.617 193.09 203.192V204.634C193.09 207.209 191.482 208.852 188.959 208.852ZM188.959 200.292C187.325 200.292 186.305 201.452 186.305 203.324V204.493C186.305 206.374 187.325 207.525 188.959 207.525C190.594 207.525 191.614 206.374 191.614 204.493V203.324C191.614 201.452 190.594 200.292 188.959 200.292ZM198.524 208.844C196.705 208.844 195.492 207.701 195.492 205.969C195.492 204.282 196.705 203.28 198.875 203.166L201.495 203.034V202.173C201.495 200.977 200.765 200.318 199.438 200.318C198.339 200.318 197.566 200.784 197.32 201.601H195.852C196.028 200.072 197.504 199.026 199.456 199.026C201.697 199.026 202.98 200.169 202.98 202.155V208.685H201.556V207.253H201.407C200.95 208.272 199.913 208.844 198.524 208.844ZM198.955 207.534C200.396 207.534 201.495 206.576 201.495 205.302V204.177L199.042 204.291C197.706 204.352 197.003 204.924 197.003 205.917C197.003 206.919 197.75 207.534 198.955 207.534ZM209.424 208.835C207.218 208.835 205.777 207.244 205.777 204.792V203.016C205.777 200.573 207.218 198.982 209.424 198.982C210.804 198.982 211.824 199.571 212.237 200.617H212.395V195.396H213.916V208.677H212.448V207.218H212.281C211.789 208.272 210.787 208.835 209.424 208.835ZM209.864 207.472C211.428 207.472 212.439 206.347 212.439 204.581V203.21C212.439 201.452 211.428 200.327 209.864 200.327C208.291 200.327 207.28 201.452 207.28 203.21V204.581C207.28 206.339 208.291 207.472 209.864 207.472ZM220.553 201.979C219.683 201.979 218.963 201.241 218.963 200.353C218.963 199.466 219.683 198.727 220.553 198.727C221.424 198.727 222.144 199.466 222.144 200.353C222.144 201.241 221.424 201.979 220.553 201.979ZM220.553 208.729C219.683 208.729 218.963 208 218.963 207.103C218.963 206.216 219.683 205.486 220.553 205.486C221.424 205.486 222.144 206.216 222.144 207.103C222.144 208 221.424 208.729 220.553 208.729ZM143.362 229.716C143.362 228.063 144.768 226.956 146.869 226.956C148.855 226.956 150.2 227.949 150.376 229.54H148.934C148.759 228.705 147.959 228.195 146.843 228.195C145.63 228.195 144.848 228.758 144.848 229.628C144.848 230.357 145.34 230.77 146.535 231.034L147.88 231.342C149.734 231.763 150.578 232.572 150.578 233.952C150.578 235.71 149.11 236.852 146.851 236.852C144.689 236.852 143.257 235.842 143.09 234.207H144.61C144.83 235.086 145.674 235.595 146.904 235.595C148.205 235.595 149.031 235.007 149.031 234.093C149.031 233.337 148.565 232.932 147.352 232.66L145.937 232.335C144.215 231.939 143.362 231.069 143.362 229.716ZM155.739 224.583H157.216V227.167H161.083V228.441H157.233V233.82C157.233 234.857 157.963 235.42 159.308 235.42C159.844 235.42 160.802 235.393 161.057 235.367V236.633C160.819 236.677 159.659 236.72 159.202 236.72C156.838 236.72 155.739 235.824 155.739 233.838V228.441H153.199V227.167H155.739V224.583ZM166.93 236.844C165.11 236.844 163.898 235.701 163.898 233.969C163.898 232.282 165.11 231.28 167.281 231.166L169.9 231.034V230.173C169.9 228.977 169.171 228.318 167.844 228.318C166.745 228.318 165.972 228.784 165.726 229.601H164.258C164.434 228.072 165.91 227.026 167.861 227.026C170.103 227.026 171.386 228.169 171.386 230.155V236.685H169.962V235.253H169.813C169.356 236.272 168.318 236.844 166.93 236.844ZM167.36 235.534C168.802 235.534 169.9 234.576 169.9 233.302V232.177L167.448 232.291C166.112 232.352 165.409 232.924 165.409 233.917C165.409 234.919 166.156 235.534 167.36 235.534ZM176.802 224.583H178.279V227.167H182.146V228.441H178.296V233.82C178.296 234.857 179.026 235.42 180.37 235.42C180.906 235.42 181.864 235.393 182.119 235.367V236.633C181.882 236.677 180.722 236.72 180.265 236.72C177.901 236.72 176.802 235.824 176.802 233.838V228.441H174.262V227.167H176.802V224.583ZM192.862 227.14V236.677H191.429V234.998H191.306C190.796 236.184 189.706 236.852 188.256 236.852C186.182 236.852 185.057 235.613 185.057 233.328V227.14H186.551V232.95C186.551 234.673 187.254 235.481 188.74 235.481C190.313 235.481 191.368 234.383 191.368 232.757V227.14H192.862ZM196.019 229.716C196.019 228.063 197.425 226.956 199.526 226.956C201.512 226.956 202.857 227.949 203.033 229.54H201.591C201.415 228.705 200.616 228.195 199.499 228.195C198.287 228.195 197.504 228.758 197.504 229.628C197.504 230.357 197.997 230.77 199.192 231.034L200.537 231.342C202.391 231.763 203.235 232.572 203.235 233.952C203.235 235.71 201.767 236.852 199.508 236.852C197.346 236.852 195.914 235.842 195.747 234.207H197.267C197.487 235.086 198.331 235.595 199.561 235.595C200.862 235.595 201.688 235.007 201.688 234.093C201.688 233.337 201.222 232.932 200.009 232.66L198.594 232.335C196.872 231.939 196.019 231.069 196.019 229.716ZM210.022 229.979C209.152 229.979 208.431 229.241 208.431 228.353C208.431 227.466 209.152 226.727 210.022 226.727C210.892 226.727 211.613 227.466 211.613 228.353C211.613 229.241 210.892 229.979 210.022 229.979ZM210.022 236.729C209.152 236.729 208.431 236 208.431 235.103C208.431 234.216 209.152 233.486 210.022 233.486C210.892 233.486 211.613 234.216 211.613 235.103C211.613 236 210.892 236.729 210.022 236.729ZM145.867 263.844C144.048 263.844 142.835 262.701 142.835 260.969C142.835 259.282 144.048 258.28 146.219 258.166L148.838 258.034V257.173C148.838 255.977 148.108 255.318 146.781 255.318C145.682 255.318 144.909 255.784 144.663 256.601H143.195C143.371 255.072 144.848 254.026 146.799 254.026C149.04 254.026 150.323 255.169 150.323 257.155V263.685H148.899V262.253H148.75C148.293 263.272 147.256 263.844 145.867 263.844ZM146.298 262.534C147.739 262.534 148.838 261.576 148.838 260.302V259.177L146.386 259.291C145.05 259.352 144.347 259.924 144.347 260.917C144.347 261.919 145.094 262.534 146.298 262.534ZM161.962 256.654V263.677H160.617V257.094C160.617 255.933 160.195 255.327 159.395 255.327C158.561 255.327 158.051 256.056 158.051 257.243V263.677H156.715V257.085C156.715 255.933 156.293 255.327 155.484 255.327C154.641 255.327 154.113 256.056 154.113 257.243V263.677H152.769V254.14H154.104V255.485H154.263C154.5 254.527 155.186 253.965 156.082 253.965C156.978 253.965 157.611 254.518 157.813 255.459H157.972C158.218 254.545 158.982 253.965 159.94 253.965C161.268 253.965 161.962 254.887 161.962 256.654ZM167.897 263.852C165.374 263.852 163.766 262.209 163.766 259.634V258.192C163.766 255.617 165.374 253.973 167.897 253.973C170.419 253.973 172.027 255.617 172.027 258.192V259.634C172.027 262.209 170.419 263.852 167.897 263.852ZM167.897 255.292C166.262 255.292 165.242 256.452 165.242 258.324V259.493C165.242 261.374 166.262 262.525 167.897 262.525C169.531 262.525 170.551 261.374 170.551 259.493V258.324C170.551 256.452 169.531 255.292 167.897 255.292ZM182.33 254.14V263.677H180.898V261.998H180.775C180.265 263.184 179.175 263.852 177.725 263.852C175.651 263.852 174.526 262.613 174.526 260.328V254.14H176.02V259.95C176.02 261.673 176.723 262.481 178.208 262.481C179.781 262.481 180.836 261.383 180.836 259.757V254.14H182.33ZM185.057 263.677V254.14H186.49V255.819H186.613C187.122 254.633 188.212 253.965 189.662 253.965C191.737 253.965 192.862 255.204 192.862 257.489V263.677H191.368V257.867C191.368 256.144 190.664 255.336 189.179 255.336C187.606 255.336 186.551 256.434 186.551 258.06V263.677H185.057ZM197.865 251.583H199.341V254.167H203.208V255.441H199.359V260.82C199.359 261.857 200.088 262.42 201.433 262.42C201.969 262.42 202.927 262.393 203.182 262.367V263.633C202.945 263.677 201.785 263.72 201.328 263.72C198.963 263.72 197.865 262.824 197.865 260.838V255.441H195.325V254.167H197.865V251.583ZM210.022 256.979C209.152 256.979 208.431 256.241 208.431 255.353C208.431 254.466 209.152 253.727 210.022 253.727C210.892 253.727 211.613 254.466 211.613 255.353C211.613 256.241 210.892 256.979 210.022 256.979ZM210.022 263.729C209.152 263.729 208.431 263 208.431 262.103C208.431 261.216 209.152 260.486 210.022 260.486C210.892 260.486 211.613 261.216 211.613 262.103C211.613 263 210.892 263.729 210.022 263.729ZM145.867 291.844C144.048 291.844 142.835 290.701 142.835 288.969C142.835 287.282 144.048 286.28 146.219 286.166L148.838 286.034V285.173C148.838 283.977 148.108 283.318 146.781 283.318C145.682 283.318 144.909 283.784 144.663 284.601H143.195C143.371 283.072 144.848 282.026 146.799 282.026C149.04 282.026 150.323 283.169 150.323 285.155V291.685H148.899V290.253H148.75C148.293 291.272 147.256 291.844 145.867 291.844ZM146.298 290.534C147.739 290.534 148.838 289.576 148.838 288.302V287.177L146.386 287.291C145.05 287.352 144.347 287.924 144.347 288.917C144.347 289.919 145.094 290.534 146.298 290.534ZM153.894 284.716C153.894 283.063 155.3 281.956 157.4 281.956C159.387 281.956 160.731 282.949 160.907 284.54H159.466C159.29 283.705 158.49 283.195 157.374 283.195C156.161 283.195 155.379 283.758 155.379 284.628C155.379 285.357 155.871 285.77 157.066 286.034L158.411 286.342C160.266 286.763 161.109 287.572 161.109 288.952C161.109 290.71 159.642 291.852 157.383 291.852C155.221 291.852 153.788 290.842 153.621 289.207H155.142C155.361 290.086 156.205 290.595 157.436 290.595C158.736 290.595 159.562 290.007 159.562 289.093C159.562 288.337 159.097 287.932 157.884 287.66L156.469 287.335C154.746 286.939 153.894 286.069 153.894 284.716ZM164.425 284.716C164.425 283.063 165.831 281.956 167.932 281.956C169.918 281.956 171.263 282.949 171.439 284.54H169.997C169.821 283.705 169.022 283.195 167.905 283.195C166.692 283.195 165.91 283.758 165.91 284.628C165.91 285.357 166.402 285.77 167.598 286.034L168.942 286.342C170.797 286.763 171.641 287.572 171.641 288.952C171.641 290.71 170.173 291.852 167.914 291.852C165.752 291.852 164.319 290.842 164.152 289.207H165.673C165.893 290.086 166.736 290.595 167.967 290.595C169.268 290.595 170.094 290.007 170.094 289.093C170.094 288.337 169.628 287.932 168.415 287.66L167 287.335C165.277 286.939 164.425 286.069 164.425 284.716ZM181.003 289.216H182.453C182.163 290.789 180.652 291.852 178.648 291.852C176.029 291.852 174.508 290.279 174.508 287.563V286.131C174.508 283.617 176.116 281.965 178.542 281.965C181.021 281.965 182.48 283.608 182.48 286.368V287.3H175.985V287.686C175.985 289.435 177.022 290.56 178.648 290.56C179.852 290.56 180.739 290.051 181.003 289.216ZM178.533 283.248C176.943 283.248 175.985 284.338 175.985 286.166H181.003C181.003 284.346 180.071 283.248 178.533 283.248ZM187.333 279.583H188.81V282.167H192.677V283.441H188.827V288.82C188.827 289.857 189.557 290.42 190.902 290.42C191.438 290.42 192.396 290.393 192.651 290.367V291.633C192.413 291.677 191.253 291.72 190.796 291.72C188.432 291.72 187.333 290.824 187.333 288.838V283.441H184.793V282.167H187.333V279.583ZM199.491 284.979C198.621 284.979 197.9 284.241 197.9 283.353C197.9 282.466 198.621 281.727 199.491 281.727C200.361 281.727 201.081 282.466 201.081 283.353C201.081 284.241 200.361 284.979 199.491 284.979ZM199.491 291.729C198.621 291.729 197.9 291 197.9 290.103C197.9 289.216 198.621 288.486 199.491 288.486C200.361 288.486 201.081 289.216 201.081 290.103C201.081 291 200.361 291.729 199.491 291.729Z" fill="#61BAEF"/>
<path d="M187.043 175.331C187.043 172.351 187.94 169.759 189.689 167.772H191.174C189.355 170.33 188.59 172.571 188.59 175.331C188.59 178.091 189.355 180.332 191.174 182.889H189.689C187.94 180.903 187.043 178.319 187.043 175.331ZM243.444 195.994H244.771L243.699 201.716H241.88L243.444 195.994ZM240.052 195.994H241.379L240.307 201.716H238.487L240.052 195.994ZM252.314 196.802C251.611 196.802 251.075 196.275 251.075 195.572C251.075 194.878 251.611 194.35 252.314 194.35C253.018 194.35 253.554 194.878 253.554 195.572C253.554 196.275 253.018 196.802 252.314 196.802ZM256.314 208.677H248.412V207.437H251.682V200.38H248.439V199.14H253.158V207.437H256.314V208.677ZM261.053 196.583H262.529V199.167H266.397V200.441H262.547V205.82C262.547 206.857 263.277 207.42 264.621 207.42C265.157 207.42 266.115 207.393 266.37 207.367V208.633C266.133 208.677 264.973 208.72 264.516 208.72C262.152 208.72 261.053 207.824 261.053 205.838V200.441H258.513V199.167H261.053V196.583ZM275.785 206.216H277.236C276.946 207.789 275.434 208.852 273.43 208.852C270.811 208.852 269.29 207.279 269.29 204.563V203.131C269.29 200.617 270.899 198.965 273.324 198.965C275.803 198.965 277.262 200.608 277.262 203.368V204.3H270.767V204.686C270.767 206.435 271.804 207.56 273.43 207.56C274.634 207.56 275.522 207.051 275.785 206.216ZM273.316 200.248C271.725 200.248 270.767 201.338 270.767 203.166H275.785C275.785 201.346 274.854 200.248 273.316 200.248ZM288.338 201.654V208.677H286.994V202.094C286.994 200.933 286.572 200.327 285.772 200.327C284.937 200.327 284.427 201.056 284.427 202.243V208.677H283.091V202.085C283.091 200.933 282.669 200.327 281.861 200.327C281.017 200.327 280.49 201.056 280.49 202.243V208.677H279.145V199.14H280.481V200.485H280.639C280.876 199.527 281.562 198.965 282.458 198.965C283.355 198.965 283.988 199.518 284.19 200.459H284.348C284.594 199.545 285.359 198.965 286.317 198.965C287.644 198.965 288.338 199.887 288.338 201.654ZM294.273 201.979C293.403 201.979 292.682 201.241 292.682 200.353C292.682 199.466 293.403 198.727 294.273 198.727C295.143 198.727 295.864 199.466 295.864 200.353C295.864 201.241 295.143 201.979 294.273 201.979ZM294.273 208.729C293.403 208.729 292.682 208 292.682 207.103C292.682 206.216 293.403 205.486 294.273 205.486C295.143 205.486 295.864 206.216 295.864 207.103C295.864 208 295.143 208.729 294.273 208.729ZM309.401 201.654V208.677H308.056V202.094C308.056 200.933 307.634 200.327 306.835 200.327C306 200.327 305.49 201.056 305.49 202.243V208.677H304.154V202.085C304.154 200.933 303.732 200.327 302.923 200.327C302.08 200.327 301.552 201.056 301.552 202.243V208.677H300.208V199.14H301.544V200.485H301.702C301.939 199.527 302.625 198.965 303.521 198.965C304.418 198.965 305.05 199.518 305.253 200.459H305.411C305.657 199.545 306.421 198.965 307.38 198.965C308.707 198.965 309.401 199.887 309.401 201.654ZM315.336 208.852C312.813 208.852 311.205 207.209 311.205 204.634V203.192C311.205 200.617 312.813 198.973 315.336 198.973C317.858 198.973 319.467 200.617 319.467 203.192V204.634C319.467 207.209 317.858 208.852 315.336 208.852ZM315.336 200.292C313.701 200.292 312.681 201.452 312.681 203.324V204.493C312.681 206.374 313.701 207.525 315.336 207.525C316.97 207.525 317.99 206.374 317.99 204.493V203.324C317.99 201.452 316.97 200.292 315.336 200.292ZM321.965 208.677V199.14H323.397V200.819H323.52C324.03 199.633 325.12 198.965 326.57 198.965C328.644 198.965 329.769 200.204 329.769 202.489V208.677H328.275V202.867C328.275 201.144 327.572 200.336 326.087 200.336C324.514 200.336 323.459 201.434 323.459 203.06V208.677H321.965ZM334.772 196.583H336.249V199.167H340.116V200.441H336.267V205.82C336.267 206.857 336.996 207.42 338.341 207.42C338.877 207.42 339.835 207.393 340.09 207.367V208.633C339.853 208.677 338.692 208.72 338.235 208.72C335.871 208.72 334.772 207.824 334.772 205.838V200.441H332.232V199.167H334.772V196.583ZM343.019 208.677V195.396H344.46V200.828H344.583C345.084 199.641 346.183 198.973 347.642 198.973C349.716 198.973 350.841 200.221 350.841 202.498V208.677H349.347V202.876C349.347 201.162 348.644 200.344 347.15 200.344C345.576 200.344 344.513 201.443 344.513 203.069V208.677H343.019ZM361.627 208.677H353.726V207.437H356.987V196.635H353.752V195.396H358.481V207.437H361.627V208.677ZM365.321 212.069C365.101 212.069 364.811 212.06 364.679 212.043V210.733C364.793 210.76 365.066 210.768 365.206 210.768C366.103 210.768 366.595 210.364 366.991 209.257L367.158 208.738L363.651 199.14H365.277L367.949 207.121H368.063L370.726 199.14H372.317L368.722 209.028C367.887 211.375 367.087 212.069 365.321 212.069ZM383.085 211.419H373.962V210.127H383.085V211.419ZM389.653 198.982C391.859 198.982 393.3 200.573 393.3 203.025V204.801C393.3 207.244 391.859 208.835 389.653 208.835C388.273 208.835 387.262 208.246 386.849 207.2H386.682V211.893H385.162V199.14H386.638V200.599H386.796C387.297 199.545 388.291 198.982 389.653 198.982ZM389.222 200.353C387.649 200.353 386.647 201.478 386.647 203.236V204.607C386.647 206.374 387.649 207.499 389.222 207.499C390.795 207.499 391.797 206.365 391.797 204.607V203.236C391.797 201.478 390.795 200.353 389.222 200.353ZM399.209 204.405V207.481H402.162V208.677H395.825V207.481H397.75V200.336H395.632V199.14H399.191V201.575H399.384C399.736 199.808 400.923 198.894 402.759 198.894C403.304 198.894 403.823 198.973 404.139 199.105V200.784C403.7 200.626 403.085 200.52 402.566 200.52C400.457 200.52 399.209 201.979 399.209 204.405ZM412.693 206.216H414.143C413.853 207.789 412.342 208.852 410.338 208.852C407.719 208.852 406.198 207.279 406.198 204.563V203.131C406.198 200.617 407.806 198.965 410.232 198.965C412.711 198.965 414.17 200.608 414.17 203.368V204.3H407.675V204.686C407.675 206.435 408.712 207.56 410.338 207.56C411.542 207.56 412.429 207.051 412.693 206.216ZM410.223 200.248C408.633 200.248 407.675 201.338 407.675 203.166H412.693C412.693 201.346 411.762 200.248 410.223 200.248ZM425.246 201.654V208.677H423.901V202.094C423.901 200.933 423.479 200.327 422.68 200.327C421.845 200.327 421.335 201.056 421.335 202.243V208.677H419.999V202.085C419.999 200.933 419.577 200.327 418.768 200.327C417.925 200.327 417.397 201.056 417.397 202.243V208.677H416.053V199.14H417.389V200.485H417.547C417.784 199.527 418.47 198.965 419.366 198.965C420.263 198.965 420.895 199.518 421.098 200.459H421.256C421.502 199.545 422.267 198.965 423.225 198.965C424.552 198.965 425.246 199.887 425.246 201.654ZM431.348 196.802C430.645 196.802 430.108 196.275 430.108 195.572C430.108 194.878 430.645 194.35 431.348 194.35C432.051 194.35 432.587 194.878 432.587 195.572C432.587 196.275 432.051 196.802 431.348 196.802ZM435.347 208.677H427.445V207.437H430.715V200.38H427.472V199.14H432.191V207.437H435.347V208.677ZM445.614 199.14V208.677H444.182V206.998H444.059C443.549 208.184 442.459 208.852 441.009 208.852C438.935 208.852 437.81 207.613 437.81 205.328V199.14H439.304V204.95C439.304 206.673 440.007 207.481 441.492 207.481C443.066 207.481 444.12 206.383 444.12 204.757V199.14H445.614ZM456.84 201.654V208.677H455.495V202.094C455.495 200.933 455.073 200.327 454.274 200.327C453.439 200.327 452.929 201.056 452.929 202.243V208.677H451.593V202.085C451.593 200.933 451.171 200.327 450.363 200.327C449.519 200.327 448.991 201.056 448.991 202.243V208.677H447.647V199.14H448.983V200.485H449.141C449.378 199.527 450.064 198.965 450.96 198.965C451.857 198.965 452.49 199.518 452.692 200.459H452.85C453.096 199.545 453.861 198.965 454.819 198.965C456.146 198.965 456.84 199.887 456.84 201.654ZM460.876 201.549H459.549L460.621 195.827H462.432L460.876 201.549ZM464.269 201.549H462.942L464.014 195.827H465.825L464.269 201.549ZM472.506 211.594H471.091L472.181 205.882H474.159L472.506 211.594ZM243.444 223.994H244.771L243.699 229.716H241.88L243.444 223.994ZM240.052 223.994H241.379L240.307 229.716H238.487L240.052 223.994ZM252.745 226.982C254.951 226.982 256.393 228.573 256.393 231.025V232.801C256.393 235.244 254.951 236.835 252.745 236.835C251.365 236.835 250.355 236.246 249.941 235.2H249.774V239.893H248.254V227.14H249.73V228.599H249.889C250.39 227.545 251.383 226.982 252.745 226.982ZM252.314 228.353C250.741 228.353 249.739 229.478 249.739 231.236V232.607C249.739 234.374 250.741 235.499 252.314 235.499C253.888 235.499 254.89 234.365 254.89 232.607V231.236C254.89 229.478 253.888 228.353 252.314 228.353ZM261.712 236.844C259.893 236.844 258.68 235.701 258.68 233.969C258.68 232.282 259.893 231.28 262.064 231.166L264.683 231.034V230.173C264.683 228.977 263.953 228.318 262.626 228.318C261.527 228.318 260.754 228.784 260.508 229.601H259.04C259.216 228.072 260.693 227.026 262.644 227.026C264.885 227.026 266.168 228.169 266.168 230.155V236.685H264.744V235.253H264.595C264.138 236.272 263.101 236.844 261.712 236.844ZM262.143 235.534C263.584 235.534 264.683 234.576 264.683 233.302V232.177L262.231 232.291C260.895 232.352 260.192 232.924 260.192 233.917C260.192 234.919 260.939 235.534 262.143 235.534ZM273.377 224.802C272.674 224.802 272.138 224.275 272.138 223.572C272.138 222.878 272.674 222.35 273.377 222.35C274.08 222.35 274.616 222.878 274.616 223.572C274.616 224.275 274.08 224.802 273.377 224.802ZM277.376 236.677H269.475V235.437H272.744V228.38H269.501V227.14H274.221V235.437H277.376V236.677ZM283.144 236.835C280.938 236.835 279.496 235.244 279.496 232.792V231.016C279.496 228.573 280.938 226.982 283.144 226.982C284.524 226.982 285.543 227.571 285.956 228.617H286.115V223.396H287.635V236.677H286.167V235.218H286C285.508 236.272 284.506 236.835 283.144 236.835ZM283.583 235.472C285.148 235.472 286.159 234.347 286.159 232.581V231.21C286.159 229.452 285.148 228.327 283.583 228.327C282.01 228.327 280.999 229.452 280.999 231.21V232.581C280.999 234.339 282.01 235.472 283.583 235.472ZM292.375 229.549H291.047L292.12 223.827H293.93L292.375 229.549ZM295.767 229.549H294.44L295.512 223.827H297.323L295.767 229.549ZM304.005 239.594H302.589L303.679 233.882H305.657L304.005 239.594ZM243.444 250.994H244.771L243.699 256.716H241.88L243.444 250.994ZM240.052 250.994H241.379L240.307 256.716H238.487L240.052 250.994ZM250.601 257.797V256.496H251.98C253.404 256.496 254.397 255.564 254.397 254.237C254.397 252.945 253.448 252.093 252.016 252.093C250.592 252.093 249.643 252.927 249.52 254.29H248.034C248.184 252.093 249.73 250.73 252.077 250.73C254.345 250.73 255.962 252.093 255.962 254.017C255.962 255.547 255.162 256.636 253.8 256.97V257.111C255.487 257.331 256.489 258.517 256.489 260.249C256.489 262.402 254.679 263.94 252.147 263.94C249.643 263.94 247.902 262.499 247.788 260.31H249.256C249.397 261.664 250.522 262.543 252.104 262.543C253.844 262.543 254.925 261.646 254.925 260.214C254.925 258.737 253.809 257.797 252.051 257.797H250.601ZM262.679 263.729C261.809 263.729 261.088 263 261.088 262.103C261.088 261.216 261.809 260.486 262.679 260.486C263.549 260.486 264.27 261.216 264.27 262.103C264.27 263 263.549 263.729 262.679 263.729ZM268.877 255.063C268.877 252.55 270.688 250.73 273.193 250.73C275.698 250.73 277.499 252.532 277.499 255.063C277.499 256.505 276.99 257.849 275.741 259.66C275.627 259.853 272.999 263.545 272.903 263.677H271.127L274.581 258.922C274.871 258.526 274.933 258.412 275.012 258.271L274.88 258.201C274.502 258.711 273.606 259.089 272.806 259.089C270.538 259.089 268.877 257.384 268.877 255.063ZM273.184 252.11C271.593 252.11 270.38 253.358 270.38 254.984C270.38 256.619 271.593 257.867 273.184 257.867C274.783 257.867 275.996 256.619 275.996 254.984C275.996 253.358 274.783 252.11 273.184 252.11ZM279.409 255.063C279.409 252.55 281.219 250.73 283.724 250.73C286.229 250.73 288.031 252.532 288.031 255.063C288.031 256.505 287.521 257.849 286.273 259.66C286.159 259.853 283.531 263.545 283.434 263.677H281.659L285.113 258.922C285.403 258.526 285.464 258.412 285.543 258.271L285.411 258.201C285.034 258.711 284.137 259.089 283.337 259.089C281.07 259.089 279.409 257.384 279.409 255.063ZM283.715 252.11C282.124 252.11 280.911 253.358 280.911 254.984C280.911 256.619 282.124 257.867 283.715 257.867C285.315 257.867 286.528 256.619 286.528 254.984C286.528 253.358 285.315 252.11 283.715 252.11ZM292.375 256.549H291.047L292.12 250.827H293.93L292.375 256.549ZM295.767 256.549H294.44L295.512 250.827H297.323L295.767 256.549ZM304.005 266.594H302.589L303.679 260.882H305.657L304.005 266.594ZM243.444 278.994H244.771L243.699 284.716H241.88L243.444 278.994ZM240.052 278.994H241.379L240.307 284.716H238.487L240.052 278.994ZM252.147 290.472C253.993 290.472 255.065 289.26 255.065 287.177V278.994H256.612V287.273C256.612 290.191 254.942 291.94 252.147 291.94C249.353 291.94 247.683 290.191 247.683 287.273V278.994H249.23V287.177C249.23 289.26 250.302 290.472 252.147 290.472ZM258.337 288.302H259.849C260.007 289.69 261.123 290.534 262.811 290.534C264.498 290.534 265.606 289.655 265.606 288.293C265.606 287.194 264.867 286.535 263.153 286.113L262.064 285.841C259.708 285.243 258.645 284.127 258.645 282.29C258.645 280.128 260.271 278.73 262.802 278.73C265.193 278.73 266.836 280.11 266.942 282.219H265.43C265.272 280.91 264.305 280.136 262.811 280.136C261.185 280.136 260.209 280.91 260.209 282.202C260.209 283.301 260.912 283.933 262.565 284.346L263.672 284.628C266.133 285.234 267.17 286.306 267.17 288.214C267.17 290.49 265.456 291.94 262.802 291.94C260.183 291.94 258.469 290.552 258.337 288.302ZM269.053 278.994H272.604C276.199 278.994 278.009 281.112 278.009 285.313C278.009 289.55 276.199 291.677 272.604 291.677H269.053V278.994ZM270.609 280.418V290.253H272.463C275.153 290.253 276.427 288.679 276.427 285.322C276.427 282 275.144 280.418 272.463 280.418H270.609ZM284.515 291.677H282.968V280.418H279.136V278.994H288.347V280.418H284.515V291.677ZM292.375 284.549H291.047L292.12 278.827H293.93L292.375 284.549ZM295.767 284.549H294.44L295.512 278.827H297.323L295.767 284.549ZM117.156 312.331C117.156 315.319 116.259 317.903 114.51 319.889H113.025C114.844 317.332 115.609 315.091 115.609 312.331C115.609 309.571 114.844 307.33 113.025 304.772H114.51C116.259 306.759 117.156 309.351 117.156 312.331Z" fill="white"/>
<defs>
<linearGradient id="paint0_linear_955_4254" x1="288.955" y1="569" x2="288.955" y2="-30" gradientUnits="userSpaceOnUse">
<stop stop-color="#C2E9FB"/>
<stop offset="1" stop-color="#A1C4FD"/>
</linearGradient>
</defs>
</svg>
