<svg width="40" height="40" viewBox="0 0 40 40" fill="none" xmlns="http://www.w3.org/2000/svg">
<path d="M31.9999 21.0533C31.7901 23.3229 30.9383 25.4859 29.5442 27.2891C28.15 29.0922 26.2712 30.4611 24.1275 31.2354C21.9838 32.0097 19.6638 32.1575 17.4392 31.6615C15.2146 31.1654 13.1772 30.0461 11.5655 28.4344C9.95381 26.8227 8.83445 24.7853 8.33841 22.5607C7.84237 20.336 7.99016 18.0161 8.76448 15.8724C9.53881 13.7287 10.9076 11.8498 12.7108 10.4557C14.514 9.06152 16.6769 8.20974 18.9465 8C17.6178 9.79769 16.9783 12.0126 17.1446 14.2419C17.3108 16.4712 18.2717 18.5667 19.8524 20.1475C21.4331 21.7282 23.5287 22.689 25.758 22.8553C27.9873 23.0215 30.2022 22.3821 31.9999 21.0533Z" stroke="white" stroke-opacity="0.8" stroke-width="2" stroke-linecap="round" stroke-linejoin="round"/>
</svg>
